<svg viewBox="0 0 310 343" fill="none" xmlns="http://www.w3.org/2000/svg">
  <path fill-rule="evenodd" clip-rule="evenodd" d="M303.5 62.5001C330.5 231.5 257.402 297.382 191 342C104.5 316 4.08168 229.982 1 64.5001C95 22.5 228.5 25 303.5 62.5001ZM20.5 77.0001C23 149 52.5 241.5 139.5 294.5C156 305.5 179.786 313.029 191 312.5C277 265.5 306 167.5 289 73.5001C219 42 87.5842 46.6357 20.5 77.0001Z" fill="black"/>
  <path d="M139.5 294.5C52.5 241.5 23 149 20.5 77.0001C87.5842 46.6357 219 42 289 73.5001C306 167.5 277 265.5 191 312.5C179.786 313.029 156 305.5 139.5 294.5Z" fill="url(#paint0_linear_104_109)"/>
  <path d="M289 73.5001L289.492 73.4111L289.445 73.1521L289.205 73.0441L289 73.5001ZM139.5 294.5L139.777 294.084L139.769 294.078L139.76 294.073L139.5 294.5ZM20.5 77.0001L20.2938 76.5446L19.9887 76.6827L20.0003 77.0174L20.5 77.0001ZM303.5 62.5001L303.994 62.4212L303.953 62.1677L303.724 62.0529L303.5 62.5001ZM191 342L190.856 342.479L191.083 342.547L191.279 342.415L191 342ZM1 64.5001L0.79603 64.0436L0.493926 64.1786L0.500087 64.5094L1 64.5001ZM191 312.5L191.024 313L191.139 312.994L191.24 312.939L191 312.5ZM139.76 294.073C52.953 241.191 23.4962 148.882 20.9997 76.9827L20.0003 77.0174C22.5038 149.119 52.047 241.81 139.24 294.927L139.76 294.073ZM303.006 62.579C316.493 146.996 304.972 205.601 281.835 248.657C258.694 291.721 223.901 319.29 190.721 341.585L191.279 342.415C224.501 320.092 259.458 292.411 282.716 249.13C305.979 205.841 317.507 147.004 303.994 62.4212L303.006 62.579ZM191.144 341.521C104.832 315.578 4.57716 229.735 1.49991 64.4908L0.500087 64.5094C3.58619 230.229 104.168 316.422 190.856 342.479L191.144 341.521ZM190.976 312.001C185.464 312.26 176.785 310.535 167.393 307.35C158.014 304.169 147.984 299.555 139.777 294.084L139.223 294.916C147.516 300.445 157.629 305.095 167.072 308.297C176.501 311.494 185.322 313.268 191.024 313L190.976 312.001ZM1.20397 64.9566C48.1262 43.9913 104.929 34.1251 159.374 34.1876C213.824 34.25 265.867 44.2424 303.276 62.9473L303.724 62.0529C266.133 43.2577 213.926 33.2501 159.376 33.1876C104.821 33.125 47.8738 43.0088 0.79603 64.0436L1.20397 64.9566ZM20.7062 77.4556C54.1641 62.3115 103.715 53.567 153.667 52.5508C203.621 51.5346 253.891 58.2491 288.795 73.9561L289.205 73.0441C254.109 57.251 203.671 50.5333 153.646 51.551C103.619 52.5687 53.9201 61.3243 20.2938 76.5446L20.7062 77.4556ZM288.508 73.5891C305.483 167.45 276.513 265.196 190.76 312.061L191.24 312.939C277.487 265.804 306.517 167.55 289.492 73.4111L288.508 73.5891Z" fill="black"/>
  <path fill-rule="evenodd" clip-rule="evenodd" d="M279.5 31.5001C262.234 33.4567 253.794 35.6849 243.5 44.0001C264.266 68.7069 276.271 82.056 281 129C278.236 127.115 276.539 125.825 273.5 123.5C275.262 145.212 276.649 157.247 272.5 181L265.5 175C262.167 195.842 260.5 211 262 237C258.603 235.497 256.593 234.09 253 231.5C253.144 240.165 253.412 244.98 256.5 253L243.5 270C233.791 239.422 236.251 223.207 242.5 194.5C245.172 199.525 246.607 201.872 249 204.5C251 180 256.46 165.942 256.5 140C259.051 143.247 260.373 145.102 262.5 148.5C264.542 127.137 262.101 116.184 256.5 97.0001C259.973 100.148 261.669 101.193 264.5 102.5C256.017 69.0444 237.5 54 219 47.5001C231.211 59.7416 237.813 66.6876 244 81.0001L231 74.5001C247.031 103.765 247.677 122.63 231 161.5C199.917 225.781 196.186 256.198 204 304.5C198.802 308.957 195.828 310.502 190.5 313C168.151 310.472 157.452 305.043 139 294V283C168.15 278.584 175.735 265.911 186 239.5C171.217 253.334 161.396 257.992 140.5 259.5C141.626 243.08 144.364 234.717 151 220.5C181.224 212.16 194.348 204.39 206 181C191.624 191.592 182.53 194.996 164.5 197C173.877 184.588 178.806 177.142 186 161.5C209.699 155.164 216.762 148.648 223 134C210.829 141.839 132.082 156.648 165.5 184.5C157.356 197.076 150.543 199.998 138 204.5C120.291 225.438 113.8 240.129 108.5 271.5C101.263 266.213 97.6468 262.861 92 256C96.4032 235.704 102.183 225.618 116 209C89.1443 205.405 82.3962 196.598 74.5 177.5C57.1956 159.172 55.3316 149.223 52.5 131.5C67.8166 125.096 75.1972 120.604 79.5 106C74.1536 89.6956 71.7273 80.3204 75 60.5001C76.8061 52.3411 78.3385 47.6335 82 39.0001C112.5 -5.49999 169.5 -3.49993 193 7.50008C179.663 11.1778 173.342 13.561 164.5 18.5001C171.35 19.3102 175.196 19.4889 182 19.0001C208.5 10.0001 257.091 9.59661 279.5 31.5001ZM173.5 137.5C188 127.119 209.5 131.5 214 108C202.184 117.241 196.068 116.827 185.5 112.5C208.952 103.991 211.805 95.3774 211.5 78.0001C202.429 87.4094 197.234 92.386 186 96.0001C192.008 79.6649 197.288 71.1933 219 60.5001C193.091 61.7603 182.296 67.8585 170.5 89.5001C169.197 83.5427 169.261 79.8502 170 73.0001C163.117 64.9044 159.146 61.4268 152 56.0001C142.147 66.2571 136.366 69.4852 125.5 69.5001C129.883 67.5353 132.08 66.1295 135 62.5001C140.419 47.4167 148.376 41.3599 164.5 31.5001C140.561 35.9537 127.448 39.2226 113.5 69.0001C109.17 64.8975 106.747 62.3939 102.5 57.5001C98.4409 59.6733 95.9129 61.4895 91 65.5001C94.4288 58.6891 96.9203 54.9727 105 49.0001C115.249 29.3548 123.34 25.2175 138 18.5001C130.64 24.7674 127.29 28.4748 125 36.0001C143.129 16.2454 151.661 14.0133 166.724 10.0723L167 10.0001C121 5.5 89.774 34.4334 86.5 71.0001C85.08 91.6802 86.3634 101.907 102.5 111C98.8565 111.65 96.1418 111.5 91 111C86.8772 125.884 80.0921 130.942 66 138.5C74.7454 166.57 83.5642 172.085 101 177.5L104 168L112.5 172L115 163.5L123.5 165.5L124 156L132.5 159.5V146C149 121 163.814 116.723 178 123.5C162.162 125.879 153.789 129.792 141 148L138 168L129 165.5V174L119.5 172L118 180L108 177L107.5 184.5C97.4559 184.445 93.8698 183.526 89.5 181C97.5 198.5 124 205.5 152 185.5C141.063 165.548 148.743 155.225 173.5 137.5ZM256.5 27C213.501 15.2738 181 28 156.5 49.0001L167 57.5001C187.104 36.011 200.958 31.842 227 28.5C210.099 34.2521 205.621 38.4142 198.5 46C217.371 34.5833 229.69 30.027 256.5 27Z" fill="black"/>
  <path d="M160.5 104C163.5 101 161 91 157.5 87.5H156.5C144.416 93.6492 141 111 123.5 111C127.89 113.113 130.966 114.038 144 112.5L147.5 110.5L142.5 110C141.792 109.494 141.951 109 142.5 108C147.27 104.821 150 99.5 155 96.0001C157.5 95 159.097 98.8065 160.5 104Z" fill="black"/>
  <path d="M90.5 130C101.826 138.098 109.265 137.374 123.5 131.5C111.758 141.915 104.376 142.185 90.5 137.5C84.318 140.969 80.8092 141.147 74.5 140C82.021 137.712 85.5804 135.788 89.5 130H90.5Z" fill="black"/>
  <path d="M156.5 49.0001C181 28 213.501 15.2738 256.5 27C229.69 30.027 217.371 34.5833 198.5 46C205.621 38.4142 210.099 34.2521 227 28.5C200.958 31.842 187.104 36.011 167 57.5001L156.5 49.0001Z" fill="#4A5C6F"/>
  <path d="M167 10.0001C121 5.5 89.774 34.4334 86.5 71.0001L91 65.5001C94.4288 58.6891 96.9203 54.9727 105 49.0001C115.249 29.3548 123.34 25.2175 138 18.5001C130.64 24.7674 127.29 28.4748 125 36.0001C143.129 16.2454 151.661 14.0133 166.724 10.0723L167 10.0001Z" fill="#4A5C6F"/>
  <path d="M139 294V283C168.15 278.584 175.735 265.911 186 239.5C171.217 253.334 161.396 257.992 140.5 259.5C141.626 243.08 144.364 234.717 151 220.5C181.224 212.16 194.348 204.39 206 181C191.624 191.592 182.53 194.996 164.5 197C173.877 184.588 178.806 177.142 186 161.5C209.699 155.164 216.762 148.648 223 134C210.829 141.839 132.082 156.648 165.5 184.5C157.356 197.076 150.543 199.998 138 204.5C120.291 225.438 113.8 240.129 108.5 271.5C118.948 281.402 125.512 286.432 139 294Z" fill="#4A5C6F"/>
  <path fill-rule="evenodd" clip-rule="evenodd" d="M173.5 137.5C188 127.119 209.5 131.5 214 108C202.184 117.241 196.068 116.827 185.5 112.5C208.952 103.991 211.805 95.3774 211.5 78.0001C202.429 87.4094 197.234 92.386 186 96.0001C192.008 79.6649 197.288 71.1933 219 60.5001C198.104 68.2462 186.25 72.3701 175.5 96.0001L170.5 89.5001C169.197 83.5427 169.261 79.8502 170 73.0001C164.497 68.0254 161.193 66.0686 155 63.5C142.843 93.0402 134.926 103.68 118 108C114.501 116.302 111.81 120.186 106.5 126C111.15 128.837 115.222 129.921 123.5 131.5C111.758 141.915 104.376 142.185 90.5 137.5C90.4645 149.074 90.0594 155.572 96 167C98.913 163.399 100.619 161.599 104 159.5L112.5 172L115 163.5C113.606 158.846 113.885 156.796 116 154C118.346 159.246 119.96 161.825 123.5 165.5L124 156C122.846 150.221 123.283 147.95 126.5 146L132.5 159.5V146C149 121 163.814 116.723 178 123.5C162.162 125.879 153.789 129.792 141 148L138 168L129 165.5V174L119.5 172L118 180C127.94 190.052 136.157 189.42 152 185.5C141.063 165.548 148.743 155.225 173.5 137.5ZM157.5 87.5C161 91 163.5 101 160.5 104C167 102.5 171.5 107 168.5 114.5C154.207 115.245 147.323 117.404 136.5 123.5C136.364 119.722 136.937 117.494 144 112.5C130.966 114.038 127.89 113.113 123.5 111C141 111 144.416 93.6492 156.5 87.5H157.5Z" fill="#1278CD"/>
  <path d="M244 81.0001L231 74.5001C247.031 103.765 247.677 122.63 231 161.5C199.917 225.781 196.186 256.198 204 304.5C220.047 294.331 228.556 286.584 243.5 270C202.5 214 272.5 134 244 81.0001Z" fill="#1278CD"/>
  <path d="M135 62.5001C140.419 47.4167 148.376 41.3599 164.5 31.5001C137.379 41.3653 127.892 49.2899 125.5 69.5001C129.883 67.5353 132.08 66.1295 135 62.5001Z" fill="#1278CD"/>
  <path d="M113.5 69.0001C109.17 64.8975 106.747 62.3939 102.5 57.5001C95.3787 71.6976 95.5547 78.2329 97 89.5001C99.3146 83.0264 100.419 79.3457 107 74C112.184 74.3939 115.143 74.7488 119.5 73.0001L113.5 69.0001Z" fill="#1278CD"/>
  <path d="M104 168L112.5 172L104 159.5C100.619 161.599 98.913 163.399 96 167C90.0594 155.572 90.4645 149.074 90.5 137.5C84.318 140.969 80.8092 141.147 74.5 140C82.021 137.712 85.5804 135.788 89.5 130H90.5C101.826 138.098 109.265 137.374 123.5 131.5C115.222 129.921 111.15 128.837 106.5 126C111.81 120.186 114.501 116.302 118 108C134.926 103.68 142.843 93.0402 155 63.5C161.193 66.0686 164.497 68.0254 170 73.0001C163.117 64.9044 159.146 61.4268 152 56.0001C142.147 66.2571 136.366 69.4852 125.5 69.5001C127.892 49.2899 137.379 41.3653 164.5 31.5001C140.561 35.9537 127.448 39.2226 113.5 69.0001L119.5 73.0001C115.143 74.7488 112.184 74.3939 107 74C100.419 79.3457 99.3146 83.0264 97 89.5001C95.5547 78.2329 95.3787 71.6976 102.5 57.5001C98.4409 59.6733 95.9129 61.4895 91 65.5001L86.5 71.0001C85.08 91.6802 86.3634 101.907 102.5 111C98.8565 111.65 96.1418 111.5 91 111C86.8772 125.884 80.0921 130.942 66 138.5C74.7454 166.57 83.5642 172.085 101 177.5L104 168Z" fill="#12CAE6"/>
  <path d="M89.5 181C97.5 198.5 124 205.5 152 185.5C136.157 189.42 127.94 190.052 118 180L108 177L107.5 184.5C97.4559 184.445 93.8698 183.526 89.5 181Z" fill="#12CAE6"/>
  <path d="M115 163.5L123.5 165.5C119.96 161.825 118.346 159.246 116 154C113.885 156.796 113.606 158.846 115 163.5Z" fill="#12CAE6"/>
  <path d="M124 156L132.5 159.5L126.5 146C123.283 147.95 122.846 150.221 124 156Z" fill="#12CAE6"/>
  <path d="M147.5 110.5L144 112.5C136.937 117.494 136.364 119.722 136.5 123.5C147.323 117.404 154.207 115.245 168.5 114.5C171.5 107 167 102.5 160.5 104C155.78 107.323 153.5 110.5 147.5 110.5Z" fill="#12CAE6"/>
  <path d="M219 60.5001C193.091 61.7603 182.296 67.8585 170.5 89.5001L175.5 96.0001C186.25 72.3701 198.104 68.2462 219 60.5001Z" fill="#12CAE6"/>
  <path d="M243.5 270C233.791 239.422 236.251 223.207 242.5 194.5C245.172 199.525 246.607 201.872 249 204.5C251 180 256.46 165.942 256.5 140C259.051 143.247 260.373 145.102 262.5 148.5C264.542 127.137 262.101 116.184 256.5 97.0001C259.973 100.148 261.669 101.193 264.5 102.5C256.017 69.0444 237.5 54 219 47.5001C231.211 59.7416 237.813 66.6876 244 81.0001C272.5 134 202.5 214 243.5 270Z" fill="#12CAE6"/>
  <path d="M142.5 110L147.5 110.5C153.5 110.5 155.78 107.323 160.5 104C159.097 98.8065 157.5 95 155 96.0001C150 99.5 147.27 104.821 142.5 108C141.951 109 141.792 109.494 142.5 110Z" fill="white"/>
  <defs>
    <linearGradient id="paint0_linear_104_109" x1="35" y1="165" x2="290.5" y2="165" gradientUnits="userSpaceOnUse">
      <stop stop-color="#1DA8DF"/>
      <stop offset="1" stop-color="#0565BB"/>
    </linearGradient>
  </defs>
</svg>
